<?xml version="1.0" encoding="utf-8"?>
<!-- Generator: Adobe Illustrator 12.0.0, SVG Export Plug-In . SVG Version: 6.00 Build 51448)  -->
<!DOCTYPE svg PUBLIC "-//W3C//DTD SVG 1.1//EN" "http://www.w3.org/Graphics/SVG/1.1/DTD/svg11.dtd" [
	<!ENTITY ns_svg "http://www.w3.org/2000/svg">
	<!ENTITY ns_xlink "http://www.w3.org/1999/xlink">
]>
<svg  version="1.1" xmlns="&ns_svg;" xmlns:xlink="&ns_xlink;" width="1880.008" height="650" viewBox="0 0 1880.008 650"
	 overflow="visible" enable-background="new 0 0 1880.008 650" xml:space="preserve">
<g id="Layer_1">
	<g>
		<linearGradient id="XMLID_11_" gradientUnits="userSpaceOnUse" x1="0.0146" y1="223.0801" x2="1878.3477" y2="223.0801">
			<stop  offset="0" style="stop-color:#B390BE"/>
			<stop  offset="1" style="stop-color:#B390BE"/>
		</linearGradient>
		<path fill="url(#XMLID_11_)" d="M1301.147,220.752c-5.849-5.85-145.694-145.693-145.694-145.693s-138.562,344.598-143.283,356.34
			c-7.018-10.271-144.311-211.203-144.311-211.203S724.796,363.258,722.775,365.279c-2.795,0-136.599,0-141.166,0
			C579.886,360.895,438.027,0.026,438.027,0.026s-148.23,148.231-150.252,150.253c-2.841,0-141.238,0-141.238,0L0.015,295.039
			l4.92,4.98c0,0,142.461-140.748,144.478-142.74c2.816,0,141.263,0,141.263,0S428.249,19.705,435.422,12.531
			c3.803,9.673,141.418,359.748,141.418,359.748h148.835c0,0,135.444-135.445,141.166-141.166
			c4.607,6.742,146.938,215.047,146.938,215.047s140.372-349.1,144.216-358.66c7.11,7.109,144.307,144.305,144.307,144.305
			s134.247-206.08,141.195-216.747c4.859,11.999,143.217,353.683,143.217,353.683s140.247-140.248,143.792-143.793
			c4.417,2.313,144.596,75.682,144.596,75.682l3.246-6.201l-149.154-78.068c0,0-132.874,132.875-139.958,139.959
			C1585.378,346.791,1444.952,0,1444.952,0S1305.705,213.756,1301.147,220.752z"/>
	</g>
	<circle fill="#FFFFFF" cx="290.225" cy="150.779" r="5.938"/>
	<circle fill="#FFFFFF" cx="146.055" cy="156.543" r="5.938"/>
	<circle fill="#FFFFFF" cx="435.422" cy="8" r="5.938"/>
	<circle fill="#FFFFFF" cx="579.797" cy="364.779" r="5.938"/>
	<circle fill="#FFFFFF" cx="724.225" cy="365.779" r="5.938"/>
	<circle fill="#FFFFFF" cx="867.35" cy="222.654" r="5.938"/>
	<circle fill="#FFFFFF" cx="1012.975" cy="435.779" r="5.938"/>
	<circle fill="#FFFFFF" cx="1156.725" cy="78.279" r="5.938"/>
	<circle fill="#FFFFFF" cx="1301.725" cy="223.279" r="5.938"/>
	<circle fill="#FFFFFF" cx="1443.497" cy="9.938" r="5.938"/>
	<circle fill="#FFFFFF" cx="1587.975" cy="360.592" r="5.938"/>
	<circle fill="#FFFFFF" cx="1729.85" cy="217.654" r="5.938"/>
	<circle fill="#FFFFFF" cx="1874.07" cy="293.141" r="5.938"/>
</g>
<g id="Layer_2" display="none">
	<g display="inline">
		
			<linearGradient id="XMLID_12_" gradientUnits="userSpaceOnUse" x1="0" y1="428.8262" x2="1877.2178" y2="428.8262" gradientTransform="matrix(-1 0 0 1 1880.0078 0)">
			<stop  offset="0" style="stop-color:#4F6EAF"/>
			<stop  offset="0.9846" style="stop-color:#4F6EAF"/>
			<stop  offset="1" style="stop-color:#4F6EAF"/>
		</linearGradient>
		<path fill="url(#XMLID_12_)" d="M1016.681,500.119c4.102,0,132.814,0,136.94,0c1.91-3.813,145.455-290.406,145.455-290.406
			s144.886,144.885,146.906,146.906c2.842,0,145.945,0,145.945,0s139.293,273.294,143.536,281.619
			c6.491-6.491,139.594-139.594,139.594-139.594l4.95,4.949L1733.602,650c0,0-144.042-282.611-145.963-286.381
			c-4.163,0-144.556,0-144.556,0s-135.554-135.554-142.094-142.094c-4.216,8.417-143.045,285.594-143.045,285.594h-145.56
			c0,0-136.817-269.418-143.477-282.532c-5.521,13.763-143.101,356.757-143.101,356.757S576.979,432.515,576.2,431.735
			c-0.97-0.494-135.614-69.132-138.683-70.695c-3.093,1.546-147.153,73.576-147.153,73.576S152.528,232.583,146.042,223.075
			C140.962,233.519,9.085,504.65,9.085,504.65l-6.295-3.063l142.234-292.425c0,0,144.313,211.527,147.678,216.459
			c5.265-2.633,144.847-72.424,144.847-72.424l142.817,72.805c0,0,135.773,135.772,142.893,142.892
			c3.841-9.574,144.899-361.243,144.899-361.243S1014.762,496.34,1016.681,500.119z"/>
	</g>
	<circle display="inline" fill="#FFFFFF" cx="868.533" cy="213.119" r="5.938"/>
	<circle display="inline" fill="#FFFFFF" cx="724.533" cy="575.119" r="5.938"/>
	<circle display="inline" fill="#FFFFFF" cx="579.221" cy="430.869" r="5.938"/>
	<circle display="inline" fill="#FFFFFF" cx="437.533" cy="357.119" r="5.938"/>
	<circle display="inline" fill="#FFFFFF" cx="1587.533" cy="359.182" r="5.938"/>
	<circle display="inline" fill="#FFFFFF" cx="1444.533" cy="360.119" r="5.938"/>
	<circle display="inline" fill="#FFFFFF" cx="1300.033" cy="215.619" r="5.938"/>
	<circle display="inline" fill="#FFFFFF" cx="1155.783" cy="503.619" r="5.938"/>
	<circle display="inline" fill="#FFFFFF" cx="1014.533" cy="503.619" r="5.938"/>
	<circle display="inline" fill="#FFFFFF" cx="291.396" cy="428.719" r="5.938"/>
	<circle display="inline" fill="#FFFFFF" cx="5.938" cy="499.117" r="5.938"/>
	<circle display="inline" fill="#FFFFFF" cx="145.533" cy="216.119" r="5.938"/>
</g>
</svg>
