<?xml version="1.0" encoding="utf-8"?>
<!-- Generator: Adobe Illustrator 12.0.0, SVG Export Plug-In . SVG Version: 6.00 Build 51448)  -->
<!DOCTYPE svg PUBLIC "-//W3C//DTD SVG 1.1//EN" "http://www.w3.org/Graphics/SVG/1.1/DTD/svg11.dtd" [
	<!ENTITY ns_svg "http://www.w3.org/2000/svg">
	<!ENTITY ns_xlink "http://www.w3.org/1999/xlink">
]>
<svg  version="1.1" xmlns="&ns_svg;" xmlns:xlink="&ns_xlink;" width="2032.027" height="73.057" viewBox="0 0 2032.027 73.057"
	 overflow="visible" enable-background="new 0 0 2032.027 73.057" xml:space="preserve">
<g id="Layer_2">
	<path fill="#B36AA4" d="M0,69.708l2019.25-1.254c0,0-92.82-71.146-371.25-48.652c-278.43,22.492-604.605,36.452-792.5-4.187
		c-187.895-40.64-337.724,10.886-640,10.886C71.594,26.501,83.857,7.693,0,44.084"/>
</g>
<g id="Layer_1">
	<path fill="#5E2B85" d="M1920,73.057H0c0,0,41.75-50.979,131.75-40.951c90,10.029,182.5,25.908,312.5,21.729
		c130-4.178,195-20.893,367.5-6.685c172.5,14.206,211.25-37.19,440-24.654c228.75,12.535,442.5,50.144,585,22.146
		s129.375-14.835,175-8.357c45.625,6.477,0,35.519,0,35.519"/>
</g>
</svg>
