<?xml version="1.0" encoding="utf-8"?>
<!-- Generator: Adobe Illustrator 12.0.0, SVG Export Plug-In . SVG Version: 6.00 Build 51448)  -->
<!DOCTYPE svg PUBLIC "-//W3C//DTD SVG 1.1//EN" "http://www.w3.org/Graphics/SVG/1.1/DTD/svg11.dtd" [
	<!ENTITY ns_svg "http://www.w3.org/2000/svg">
	<!ENTITY ns_xlink "http://www.w3.org/1999/xlink">
]>
<svg  version="1.1" id="Layer_1" xmlns="&ns_svg;" xmlns:xlink="&ns_xlink;" width="510.493" height="260.41"
	 viewBox="0 0 510.493 260.41" overflow="visible" enable-background="new 0 0 510.493 260.41" xml:space="preserve">
<g id="Layer_2">
	<g>
		<g>
			<g display="none" enable-background="new    ">
				
					<linearGradient id="XMLID_3_" gradientUnits="userSpaceOnUse" x1="-560.5029" y1="72.0044" x2="-54.8081" y2="72.0044" gradientTransform="matrix(1 0 0 -1 564 253.4102)">
					<stop  offset="0.4101" style="stop-color:#FFC20E"/>
					<stop  offset="0.5618" style="stop-color:#FEBB12"/>
					<stop  offset="0.8989" style="stop-color:#F26522"/>
				</linearGradient>
				<path display="inline" fill="url(#XMLID_3_)" d="M146.406,106.165c0,0-69.936,67.385-72.212,69.579c-3.176,0-70.697,0-70.697,0
					v7.742h74.024c0,0,69.936-67.387,72.213-69.582c3.099,0,65.356,0,68.457,0c2.276,2.194,72.636,69.992,72.636,69.992
					s69.037,0,72.215,0c2.274,2.193,75.5,72.75,75.5,72.75l70.65-144.55l-7.268-3.297c0,0-61.256,125.328-65.781,134.59
					c-7.205-6.941-69.777-67.232-69.777-67.232s-69.035,0-72.209,0c-2.279-2.191-72.64-69.99-72.64-69.99L146.406,106.165
					L146.406,106.165z"/>
			</g>
			<g display="none">
				
					<linearGradient id="XMLID_4_" gradientUnits="userSpaceOnUse" x1="-561.5059" y1="71.6465" x2="-53.5054" y2="71.6465" gradientTransform="matrix(1 0 0 -1 564 253.4102)">
					<stop  offset="0.4101" style="stop-color:#FFC20E"/>
					<stop  offset="0.5618" style="stop-color:#FEBB12"/>
					<stop  offset="0.8989" style="stop-color:#F26522"/>
				</linearGradient>
				<path display="inline" fill="url(#XMLID_4_)" d="M145.969,105.264c0,0-71.62,69.009-72.211,69.579c-0.863,0-71.264,0-71.264,0
					v9.544h75.465c0,0,71.622-69.012,72.212-69.581c0.858,0,66.725,0,67.583,0c0.59,0.569,72.636,69.991,72.636,69.991
					s71.351,0,72.213,0c0.591,0.569,76.247,73.467,76.247,73.467l71.645-146.587l-9.063-4.111c0,0-64.391,131.743-65.592,134.208
					c-2.023-1.945-69.036-66.52-69.036-66.52s-71.345,0-72.209,0c-0.591-0.566-72.64-69.989-72.64-69.989L145.969,105.264
					L145.969,105.264z M221.08,107.066c0.592,0.569,72.639,69.991,72.639,69.991s71.35,0,72.214,0
					c0.59,0.568,70.519,67.948,70.519,67.948s65.127-133.252,65.969-134.973c1.238,0.562,4.342,1.971,5.475,2.483
					c-0.754,1.532-68.457,140.061-69.658,142.514c-2.025-1.95-74.757-72.034-74.757-72.034s-71.351,0-72.213,0
					c-0.591-0.569-72.639-69.99-72.639-69.99h-69.329c0,0-71.622,69.011-72.212,69.578c-0.853,0-70.642,0-72.584,0
					c0-1.222,0-4.717,0-5.938c1.952,0,70.131,0,70.131,0s71.622-69.01,72.212-69.579
					C147.702,107.066,220.222,107.066,221.08,107.066z"/>
			</g>
		</g>
	</g>
</g>
<g id="Layer_3">
	<line fill="none" x1="3.657" y1="0" x2="3.657" y2="247.66"/>
	<line fill="none" stroke="#333332" stroke-width="2" x1="1.657" y1="259.191" x2="442.157" y2="259.191"/>
	<line fill="none" stroke="#333332" stroke-width="2" x1="1.667" y1="260.191" x2="1.667" y2="91.41"/>
	<line fill="none" stroke="#D1D3D4" x1="75.157" y1="258.191" x2="75.157" y2="93.243"/>
	<line fill="none" stroke="#D1D3D4" x1="148.157" y1="258.191" x2="148.157" y2="93.076"/>
	<line fill="none" stroke="#D1D3D4" x1="219.657" y1="92.076" x2="219.657" y2="257.191"/>
	<line fill="none" stroke="#D1D3D4" x1="291.657" y1="92.576" x2="291.657" y2="257.191"/>
	<line fill="none" stroke="#D1D3D4" x1="363.657" y1="258.191" x2="363.657" y2="93.743"/>
	<line fill="none" stroke="#D1D3D4" x1="435.657" y1="257.243" x2="435.657" y2="92.41"/>
	<line fill="none" stroke="#D1D3D4" x1="2.667" y1="135.91" x2="434.657" y2="135.91"/>
	<line fill="none" stroke="#D1D3D4" x1="434.657" y1="207.41" x2="2.667" y2="207.41"/>
	<line fill="none" stroke="#D1D3D4" x1="39.465" y1="257.921" x2="39.465" y2="92.974"/>
	<line fill="none" stroke="#D1D3D4" x1="111.806" y1="257.582" x2="111.806" y2="92.634"/>
	<line fill="none" stroke="#D1D3D4" x1="183.295" y1="257.73" x2="183.295" y2="92.783"/>
	<line fill="none" stroke="#D1D3D4" x1="255.859" y1="257.527" x2="255.859" y2="92.581"/>
	<line fill="none" stroke="#D1D3D4" x1="327.549" y1="258.432" x2="327.549" y2="93.484"/>
	<line fill="none" stroke="#D1D3D4" x1="400.317" y1="257.582" x2="400.317" y2="92.634"/>
	<line fill="none" stroke="#D1D3D4" x1="435.104" y1="231.988" x2="3.114" y2="231.988"/>
	<line fill="none" stroke="#D1D3D4" x1="434.508" y1="180.775" x2="2.518" y2="180.775"/>
	<line fill="none" stroke="#D1D3D4" x1="434.975" y1="159.668" x2="2.986" y2="159.668"/>
	<line fill="none" stroke="#D1D3D4" x1="435.379" y1="110.307" x2="3.39" y2="110.307"/>
</g>
</svg>
